# xmcd
#
# Track frame offsets:
#	150
#	15302
#	28603
#	43989
#	56194
#	72319
#	84464
#	96476
#	107918
#	121032
#	135762
#	147489
#	162661
#	178282
#	188901
#	201924
#	213105
#	226570
#	239405
#	253814
#
# Disc length: 3537
#
# Revision: 2
# Processed by: cddbd v1.5.1PL0 Copyright (c) Steve Scherf et al.
# Submitted via: dBpowerAMP V4.0
# Normalized: r0:TSWAP
#
DISCID=210dcf14
DTITLE=Various Artist - Chillout Country
DYEAR=2003
DGENRE=Country
TTITLE0=Lacy J Dalton - Takin It Easy
TTITLE1=Moe Bandy - I Just Started Hatin Cheatin Songs
TTITLE2=Exile - Crazy For Your Love
TTITLE3=Janie Fricke - Easy To Please
TTITLE4=B J Thomas - Another Somebody Done Somebody Wrong Song
TTITLE5=Lynn Anderson - Stand By Your Man
TTITLE6=Freddy Fender - Before The Next Teardrop Falls
TTITLE7=Donna Fargo - Funny Face
TTITLE8=Jack Greene - Statue Of A Fool
TTITLE9=Jeannie Pruett - Satin Sheets
TTITLE10=Willie Nelson - Night Life
TTITLE11=Kenny Rogers - For The Good Times
TTITLE12=T G Sheppard - My First Lady
TTITLE13=Billie Jo Spears - I'm So Lonesome I Could Cry
TTITLE14=Ferlin Husky - Behind Closed Doors
TTITLE15=Patsy Cline - Just Out Of Reach
TTITLE16=Faron Young - Welcome To My World
TTITLE17=Barbara Mandrell - Don't Touch Me
TTITLE18=Johnny Paycheck - Green Green Grass Of Home
TTITLE19=Don Gibson - I Can't Stop Loving You
EXTD=
EXTT0=
EXTT1=
EXTT2=
EXTT3=
EXTT4=
EXTT5=
EXTT6=
EXTT7=
EXTT8=
EXTT9=
EXTT10=
EXTT11=
EXTT12=
EXTT13=
EXTT14=
EXTT15=
EXTT16=
EXTT17=
EXTT18=
EXTT19=
PLAYORDER=
